<mxfile host="65bd71144e">
    <diagram id="0QC0rAiJB4ldygqYQt0E" name="Page-1">
        <mxGraphModel dx="3040" dy="702" grid="1" gridSize="10" guides="1" tooltips="1" connect="1" arrows="1" fold="1" page="1" pageScale="1" pageWidth="827" pageHeight="1169" math="0" shadow="0">
            <root>
                <mxCell id="0"/>
                <mxCell id="1" parent="0"/>
                <mxCell id="3" value="&lt;font style=&quot;font-size: 30px;&quot;&gt;&lt;b&gt;&amp;nbsp;Book Store - Logical Model - Answer 1&lt;/b&gt;&lt;/font&gt;" style="text;html=1;strokeColor=none;fillColor=none;align=center;verticalAlign=middle;whiteSpace=wrap;rounded=0;" vertex="1" parent="1">
                    <mxGeometry x="-1567" y="20" width="977" height="30" as="geometry"/>
                </mxCell>
                <mxCell id="4" value="Untitled Layer" parent="0"/>
                <mxCell id="121" value="employee" style="shape=table;startSize=30;container=1;collapsible=1;childLayout=tableLayout;fixedRows=1;rowLines=0;fontStyle=1;align=center;resizeLast=1;fontSize=16;" vertex="1" parent="4">
                    <mxGeometry x="-1560" y="80" width="290" height="270" as="geometry"/>
                </mxCell>
                <mxCell id="122" value="" style="shape=tableRow;horizontal=0;startSize=0;swimlaneHead=0;swimlaneBody=0;fillColor=none;collapsible=0;dropTarget=0;points=[[0,0.5],[1,0.5]];portConstraint=eastwest;top=0;left=0;right=0;bottom=1;" vertex="1" parent="121">
                    <mxGeometry y="30" width="290" height="30" as="geometry"/>
                </mxCell>
                <mxCell id="123" value="PK" style="shape=partialRectangle;connectable=0;fillColor=none;top=0;left=0;bottom=0;right=0;fontStyle=1;overflow=hidden;" vertex="1" parent="122">
                    <mxGeometry width="30" height="30" as="geometry">
                        <mxRectangle width="30" height="30" as="alternateBounds"/>
                    </mxGeometry>
                </mxCell>
                <mxCell id="124" value="employee_id" style="shape=partialRectangle;connectable=0;fillColor=none;top=0;left=0;bottom=0;right=0;align=left;spacingLeft=6;fontStyle=0;overflow=hidden;" vertex="1" parent="122">
                    <mxGeometry x="30" width="150" height="30" as="geometry">
                        <mxRectangle width="150" height="30" as="alternateBounds"/>
                    </mxGeometry>
                </mxCell>
                <mxCell id="148" value="int" style="shape=partialRectangle;connectable=0;fillColor=none;top=0;left=0;bottom=0;right=0;align=left;spacingLeft=6;fontStyle=0;overflow=hidden;" vertex="1" parent="122">
                    <mxGeometry x="180" width="110" height="30" as="geometry">
                        <mxRectangle width="110" height="30" as="alternateBounds"/>
                    </mxGeometry>
                </mxCell>
                <mxCell id="125" value="" style="shape=tableRow;horizontal=0;startSize=0;swimlaneHead=0;swimlaneBody=0;fillColor=none;collapsible=0;dropTarget=0;points=[[0,0.5],[1,0.5]];portConstraint=eastwest;top=0;left=0;right=0;bottom=0;" vertex="1" parent="121">
                    <mxGeometry y="60" width="290" height="30" as="geometry"/>
                </mxCell>
                <mxCell id="126" value="" style="shape=partialRectangle;connectable=0;fillColor=none;top=0;left=0;bottom=0;right=0;editable=1;overflow=hidden;" vertex="1" parent="125">
                    <mxGeometry width="30" height="30" as="geometry">
                        <mxRectangle width="30" height="30" as="alternateBounds"/>
                    </mxGeometry>
                </mxCell>
                <mxCell id="127" value="employee_first_name" style="shape=partialRectangle;connectable=0;fillColor=none;top=0;left=0;bottom=0;right=0;align=left;spacingLeft=6;overflow=hidden;" vertex="1" parent="125">
                    <mxGeometry x="30" width="150" height="30" as="geometry">
                        <mxRectangle width="150" height="30" as="alternateBounds"/>
                    </mxGeometry>
                </mxCell>
                <mxCell id="149" value="varchar(100)" style="shape=partialRectangle;connectable=0;fillColor=none;top=0;left=0;bottom=0;right=0;align=left;spacingLeft=6;overflow=hidden;" vertex="1" parent="125">
                    <mxGeometry x="180" width="110" height="30" as="geometry">
                        <mxRectangle width="110" height="30" as="alternateBounds"/>
                    </mxGeometry>
                </mxCell>
                <mxCell id="128" value="" style="shape=tableRow;horizontal=0;startSize=0;swimlaneHead=0;swimlaneBody=0;fillColor=none;collapsible=0;dropTarget=0;points=[[0,0.5],[1,0.5]];portConstraint=eastwest;top=0;left=0;right=0;bottom=0;" vertex="1" parent="121">
                    <mxGeometry y="90" width="290" height="30" as="geometry"/>
                </mxCell>
                <mxCell id="129" value="" style="shape=partialRectangle;connectable=0;fillColor=none;top=0;left=0;bottom=0;right=0;editable=1;overflow=hidden;" vertex="1" parent="128">
                    <mxGeometry width="30" height="30" as="geometry">
                        <mxRectangle width="30" height="30" as="alternateBounds"/>
                    </mxGeometry>
                </mxCell>
                <mxCell id="130" value="employee_last_name" style="shape=partialRectangle;connectable=0;fillColor=none;top=0;left=0;bottom=0;right=0;align=left;spacingLeft=6;overflow=hidden;" vertex="1" parent="128">
                    <mxGeometry x="30" width="150" height="30" as="geometry">
                        <mxRectangle width="150" height="30" as="alternateBounds"/>
                    </mxGeometry>
                </mxCell>
                <mxCell id="150" value="varchar(100)" style="shape=partialRectangle;connectable=0;fillColor=none;top=0;left=0;bottom=0;right=0;align=left;spacingLeft=6;overflow=hidden;" vertex="1" parent="128">
                    <mxGeometry x="180" width="110" height="30" as="geometry">
                        <mxRectangle width="110" height="30" as="alternateBounds"/>
                    </mxGeometry>
                </mxCell>
                <mxCell id="131" value="" style="shape=tableRow;horizontal=0;startSize=0;swimlaneHead=0;swimlaneBody=0;fillColor=none;collapsible=0;dropTarget=0;points=[[0,0.5],[1,0.5]];portConstraint=eastwest;top=0;left=0;right=0;bottom=0;" vertex="1" parent="121">
                    <mxGeometry y="120" width="290" height="30" as="geometry"/>
                </mxCell>
                <mxCell id="132" value="" style="shape=partialRectangle;connectable=0;fillColor=none;top=0;left=0;bottom=0;right=0;editable=1;overflow=hidden;" vertex="1" parent="131">
                    <mxGeometry width="30" height="30" as="geometry">
                        <mxRectangle width="30" height="30" as="alternateBounds"/>
                    </mxGeometry>
                </mxCell>
                <mxCell id="133" value="employee_email" style="shape=partialRectangle;connectable=0;fillColor=none;top=0;left=0;bottom=0;right=0;align=left;spacingLeft=6;overflow=hidden;" vertex="1" parent="131">
                    <mxGeometry x="30" width="150" height="30" as="geometry">
                        <mxRectangle width="150" height="30" as="alternateBounds"/>
                    </mxGeometry>
                </mxCell>
                <mxCell id="151" value="varchar(100)" style="shape=partialRectangle;connectable=0;fillColor=none;top=0;left=0;bottom=0;right=0;align=left;spacingLeft=6;overflow=hidden;" vertex="1" parent="131">
                    <mxGeometry x="180" width="110" height="30" as="geometry">
                        <mxRectangle width="110" height="30" as="alternateBounds"/>
                    </mxGeometry>
                </mxCell>
                <mxCell id="160" style="shape=tableRow;horizontal=0;startSize=0;swimlaneHead=0;swimlaneBody=0;fillColor=none;collapsible=0;dropTarget=0;points=[[0,0.5],[1,0.5]];portConstraint=eastwest;top=0;left=0;right=0;bottom=0;" vertex="1" parent="121">
                    <mxGeometry y="150" width="290" height="30" as="geometry"/>
                </mxCell>
                <mxCell id="161" style="shape=partialRectangle;connectable=0;fillColor=none;top=0;left=0;bottom=0;right=0;editable=1;overflow=hidden;" vertex="1" parent="160">
                    <mxGeometry width="30" height="30" as="geometry">
                        <mxRectangle width="30" height="30" as="alternateBounds"/>
                    </mxGeometry>
                </mxCell>
                <mxCell id="162" value="employee_phone" style="shape=partialRectangle;connectable=0;fillColor=none;top=0;left=0;bottom=0;right=0;align=left;spacingLeft=6;overflow=hidden;" vertex="1" parent="160">
                    <mxGeometry x="30" width="150" height="30" as="geometry">
                        <mxRectangle width="150" height="30" as="alternateBounds"/>
                    </mxGeometry>
                </mxCell>
                <mxCell id="163" value="varchar(15)" style="shape=partialRectangle;connectable=0;fillColor=none;top=0;left=0;bottom=0;right=0;align=left;spacingLeft=6;overflow=hidden;" vertex="1" parent="160">
                    <mxGeometry x="180" width="110" height="30" as="geometry">
                        <mxRectangle width="110" height="30" as="alternateBounds"/>
                    </mxGeometry>
                </mxCell>
                <mxCell id="164" style="shape=tableRow;horizontal=0;startSize=0;swimlaneHead=0;swimlaneBody=0;fillColor=none;collapsible=0;dropTarget=0;points=[[0,0.5],[1,0.5]];portConstraint=eastwest;top=0;left=0;right=0;bottom=0;" vertex="1" parent="121">
                    <mxGeometry y="180" width="290" height="30" as="geometry"/>
                </mxCell>
                <mxCell id="165" value="FK" style="shape=partialRectangle;connectable=0;fillColor=none;top=0;left=0;bottom=0;right=0;editable=1;overflow=hidden;fontStyle=1" vertex="1" parent="164">
                    <mxGeometry width="30" height="30" as="geometry">
                        <mxRectangle width="30" height="30" as="alternateBounds"/>
                    </mxGeometry>
                </mxCell>
                <mxCell id="166" value="employee_hire_date" style="shape=partialRectangle;connectable=0;fillColor=none;top=0;left=0;bottom=0;right=0;align=left;spacingLeft=6;overflow=hidden;" vertex="1" parent="164">
                    <mxGeometry x="30" width="150" height="30" as="geometry">
                        <mxRectangle width="150" height="30" as="alternateBounds"/>
                    </mxGeometry>
                </mxCell>
                <mxCell id="167" value="datetime" style="shape=partialRectangle;connectable=0;fillColor=none;top=0;left=0;bottom=0;right=0;align=left;spacingLeft=6;overflow=hidden;" vertex="1" parent="164">
                    <mxGeometry x="180" width="110" height="30" as="geometry">
                        <mxRectangle width="110" height="30" as="alternateBounds"/>
                    </mxGeometry>
                </mxCell>
                <mxCell id="300" style="shape=tableRow;horizontal=0;startSize=0;swimlaneHead=0;swimlaneBody=0;fillColor=none;collapsible=0;dropTarget=0;points=[[0,0.5],[1,0.5]];portConstraint=eastwest;top=0;left=0;right=0;bottom=0;" vertex="1" parent="121">
                    <mxGeometry y="210" width="290" height="30" as="geometry"/>
                </mxCell>
                <mxCell id="301" style="shape=partialRectangle;connectable=0;fillColor=none;top=0;left=0;bottom=0;right=0;editable=1;overflow=hidden;" vertex="1" parent="300">
                    <mxGeometry width="30" height="30" as="geometry">
                        <mxRectangle width="30" height="30" as="alternateBounds"/>
                    </mxGeometry>
                </mxCell>
                <mxCell id="302" value="employee_position   " style="shape=partialRectangle;connectable=0;fillColor=none;top=0;left=0;bottom=0;right=0;align=left;spacingLeft=6;overflow=hidden;" vertex="1" parent="300">
                    <mxGeometry x="30" width="150" height="30" as="geometry">
                        <mxRectangle width="150" height="30" as="alternateBounds"/>
                    </mxGeometry>
                </mxCell>
                <mxCell id="303" value="varchar(100)" style="shape=partialRectangle;connectable=0;fillColor=none;top=0;left=0;bottom=0;right=0;align=left;spacingLeft=6;overflow=hidden;" vertex="1" parent="300">
                    <mxGeometry x="180" width="110" height="30" as="geometry">
                        <mxRectangle width="110" height="30" as="alternateBounds"/>
                    </mxGeometry>
                </mxCell>
                <mxCell id="304" style="shape=tableRow;horizontal=0;startSize=0;swimlaneHead=0;swimlaneBody=0;fillColor=none;collapsible=0;dropTarget=0;points=[[0,0.5],[1,0.5]];portConstraint=eastwest;top=0;left=0;right=0;bottom=0;" vertex="1" parent="121">
                    <mxGeometry y="240" width="290" height="30" as="geometry"/>
                </mxCell>
                <mxCell id="305" style="shape=partialRectangle;connectable=0;fillColor=none;top=0;left=0;bottom=0;right=0;editable=1;overflow=hidden;" vertex="1" parent="304">
                    <mxGeometry width="30" height="30" as="geometry">
                        <mxRectangle width="30" height="30" as="alternateBounds"/>
                    </mxGeometry>
                </mxCell>
                <mxCell id="306" value="employee_salary" style="shape=partialRectangle;connectable=0;fillColor=none;top=0;left=0;bottom=0;right=0;align=left;spacingLeft=6;overflow=hidden;" vertex="1" parent="304">
                    <mxGeometry x="30" width="150" height="30" as="geometry">
                        <mxRectangle width="150" height="30" as="alternateBounds"/>
                    </mxGeometry>
                </mxCell>
                <mxCell id="307" value="decimal(10,2)" style="shape=partialRectangle;connectable=0;fillColor=none;top=0;left=0;bottom=0;right=0;align=left;spacingLeft=6;overflow=hidden;" vertex="1" parent="304">
                    <mxGeometry x="180" width="110" height="30" as="geometry">
                        <mxRectangle width="110" height="30" as="alternateBounds"/>
                    </mxGeometry>
                </mxCell>
                <mxCell id="168" value="customer" style="shape=table;startSize=30;container=1;collapsible=1;childLayout=tableLayout;fixedRows=1;rowLines=0;fontStyle=1;align=center;resizeLast=1;fontSize=16;" vertex="1" parent="4">
                    <mxGeometry x="-1160" y="80" width="290" height="180" as="geometry"/>
                </mxCell>
                <mxCell id="169" value="" style="shape=tableRow;horizontal=0;startSize=0;swimlaneHead=0;swimlaneBody=0;fillColor=none;collapsible=0;dropTarget=0;points=[[0,0.5],[1,0.5]];portConstraint=eastwest;top=0;left=0;right=0;bottom=1;" vertex="1" parent="168">
                    <mxGeometry y="30" width="290" height="30" as="geometry"/>
                </mxCell>
                <mxCell id="170" value="PK" style="shape=partialRectangle;connectable=0;fillColor=none;top=0;left=0;bottom=0;right=0;fontStyle=1;overflow=hidden;" vertex="1" parent="169">
                    <mxGeometry width="30" height="30" as="geometry">
                        <mxRectangle width="30" height="30" as="alternateBounds"/>
                    </mxGeometry>
                </mxCell>
                <mxCell id="171" value="customer_id" style="shape=partialRectangle;connectable=0;fillColor=none;top=0;left=0;bottom=0;right=0;align=left;spacingLeft=6;fontStyle=0;overflow=hidden;" vertex="1" parent="169">
                    <mxGeometry x="30" width="150" height="30" as="geometry">
                        <mxRectangle width="150" height="30" as="alternateBounds"/>
                    </mxGeometry>
                </mxCell>
                <mxCell id="172" value="int" style="shape=partialRectangle;connectable=0;fillColor=none;top=0;left=0;bottom=0;right=0;align=left;spacingLeft=6;fontStyle=0;overflow=hidden;" vertex="1" parent="169">
                    <mxGeometry x="180" width="110" height="30" as="geometry">
                        <mxRectangle width="110" height="30" as="alternateBounds"/>
                    </mxGeometry>
                </mxCell>
                <mxCell id="173" value="" style="shape=tableRow;horizontal=0;startSize=0;swimlaneHead=0;swimlaneBody=0;fillColor=none;collapsible=0;dropTarget=0;points=[[0,0.5],[1,0.5]];portConstraint=eastwest;top=0;left=0;right=0;bottom=0;" vertex="1" parent="168">
                    <mxGeometry y="60" width="290" height="30" as="geometry"/>
                </mxCell>
                <mxCell id="174" value="" style="shape=partialRectangle;connectable=0;fillColor=none;top=0;left=0;bottom=0;right=0;editable=1;overflow=hidden;" vertex="1" parent="173">
                    <mxGeometry width="30" height="30" as="geometry">
                        <mxRectangle width="30" height="30" as="alternateBounds"/>
                    </mxGeometry>
                </mxCell>
                <mxCell id="175" value="customer_first_name" style="shape=partialRectangle;connectable=0;fillColor=none;top=0;left=0;bottom=0;right=0;align=left;spacingLeft=6;overflow=hidden;" vertex="1" parent="173">
                    <mxGeometry x="30" width="150" height="30" as="geometry">
                        <mxRectangle width="150" height="30" as="alternateBounds"/>
                    </mxGeometry>
                </mxCell>
                <mxCell id="176" value="varchar(100)" style="shape=partialRectangle;connectable=0;fillColor=none;top=0;left=0;bottom=0;right=0;align=left;spacingLeft=6;overflow=hidden;" vertex="1" parent="173">
                    <mxGeometry x="180" width="110" height="30" as="geometry">
                        <mxRectangle width="110" height="30" as="alternateBounds"/>
                    </mxGeometry>
                </mxCell>
                <mxCell id="177" value="" style="shape=tableRow;horizontal=0;startSize=0;swimlaneHead=0;swimlaneBody=0;fillColor=none;collapsible=0;dropTarget=0;points=[[0,0.5],[1,0.5]];portConstraint=eastwest;top=0;left=0;right=0;bottom=0;" vertex="1" parent="168">
                    <mxGeometry y="90" width="290" height="30" as="geometry"/>
                </mxCell>
                <mxCell id="178" value="" style="shape=partialRectangle;connectable=0;fillColor=none;top=0;left=0;bottom=0;right=0;editable=1;overflow=hidden;" vertex="1" parent="177">
                    <mxGeometry width="30" height="30" as="geometry">
                        <mxRectangle width="30" height="30" as="alternateBounds"/>
                    </mxGeometry>
                </mxCell>
                <mxCell id="179" value="customer_last_name" style="shape=partialRectangle;connectable=0;fillColor=none;top=0;left=0;bottom=0;right=0;align=left;spacingLeft=6;overflow=hidden;" vertex="1" parent="177">
                    <mxGeometry x="30" width="150" height="30" as="geometry">
                        <mxRectangle width="150" height="30" as="alternateBounds"/>
                    </mxGeometry>
                </mxCell>
                <mxCell id="180" value="varchar(100)" style="shape=partialRectangle;connectable=0;fillColor=none;top=0;left=0;bottom=0;right=0;align=left;spacingLeft=6;overflow=hidden;" vertex="1" parent="177">
                    <mxGeometry x="180" width="110" height="30" as="geometry">
                        <mxRectangle width="110" height="30" as="alternateBounds"/>
                    </mxGeometry>
                </mxCell>
                <mxCell id="181" value="" style="shape=tableRow;horizontal=0;startSize=0;swimlaneHead=0;swimlaneBody=0;fillColor=none;collapsible=0;dropTarget=0;points=[[0,0.5],[1,0.5]];portConstraint=eastwest;top=0;left=0;right=0;bottom=0;" vertex="1" parent="168">
                    <mxGeometry y="120" width="290" height="30" as="geometry"/>
                </mxCell>
                <mxCell id="182" value="" style="shape=partialRectangle;connectable=0;fillColor=none;top=0;left=0;bottom=0;right=0;editable=1;overflow=hidden;" vertex="1" parent="181">
                    <mxGeometry width="30" height="30" as="geometry">
                        <mxRectangle width="30" height="30" as="alternateBounds"/>
                    </mxGeometry>
                </mxCell>
                <mxCell id="183" value="customer_email" style="shape=partialRectangle;connectable=0;fillColor=none;top=0;left=0;bottom=0;right=0;align=left;spacingLeft=6;overflow=hidden;" vertex="1" parent="181">
                    <mxGeometry x="30" width="150" height="30" as="geometry">
                        <mxRectangle width="150" height="30" as="alternateBounds"/>
                    </mxGeometry>
                </mxCell>
                <mxCell id="184" value="varchar(100)" style="shape=partialRectangle;connectable=0;fillColor=none;top=0;left=0;bottom=0;right=0;align=left;spacingLeft=6;overflow=hidden;" vertex="1" parent="181">
                    <mxGeometry x="180" width="110" height="30" as="geometry">
                        <mxRectangle width="110" height="30" as="alternateBounds"/>
                    </mxGeometry>
                </mxCell>
                <mxCell id="185" style="shape=tableRow;horizontal=0;startSize=0;swimlaneHead=0;swimlaneBody=0;fillColor=none;collapsible=0;dropTarget=0;points=[[0,0.5],[1,0.5]];portConstraint=eastwest;top=0;left=0;right=0;bottom=0;" vertex="1" parent="168">
                    <mxGeometry y="150" width="290" height="30" as="geometry"/>
                </mxCell>
                <mxCell id="186" style="shape=partialRectangle;connectable=0;fillColor=none;top=0;left=0;bottom=0;right=0;editable=1;overflow=hidden;" vertex="1" parent="185">
                    <mxGeometry width="30" height="30" as="geometry">
                        <mxRectangle width="30" height="30" as="alternateBounds"/>
                    </mxGeometry>
                </mxCell>
                <mxCell id="187" value="customer_phone" style="shape=partialRectangle;connectable=0;fillColor=none;top=0;left=0;bottom=0;right=0;align=left;spacingLeft=6;overflow=hidden;" vertex="1" parent="185">
                    <mxGeometry x="30" width="150" height="30" as="geometry">
                        <mxRectangle width="150" height="30" as="alternateBounds"/>
                    </mxGeometry>
                </mxCell>
                <mxCell id="188" value="varchar(15)" style="shape=partialRectangle;connectable=0;fillColor=none;top=0;left=0;bottom=0;right=0;align=left;spacingLeft=6;overflow=hidden;" vertex="1" parent="185">
                    <mxGeometry x="180" width="110" height="30" as="geometry">
                        <mxRectangle width="110" height="30" as="alternateBounds"/>
                    </mxGeometry>
                </mxCell>
                <mxCell id="193" value="book" style="shape=table;startSize=30;container=1;collapsible=1;childLayout=tableLayout;fixedRows=1;rowLines=0;fontStyle=1;align=center;resizeLast=1;fontSize=16;" vertex="1" parent="4">
                    <mxGeometry x="-1160" y="360" width="290" height="210" as="geometry"/>
                </mxCell>
                <mxCell id="194" value="" style="shape=tableRow;horizontal=0;startSize=0;swimlaneHead=0;swimlaneBody=0;fillColor=none;collapsible=0;dropTarget=0;points=[[0,0.5],[1,0.5]];portConstraint=eastwest;top=0;left=0;right=0;bottom=1;" vertex="1" parent="193">
                    <mxGeometry y="30" width="290" height="30" as="geometry"/>
                </mxCell>
                <mxCell id="195" value="PK" style="shape=partialRectangle;connectable=0;fillColor=none;top=0;left=0;bottom=0;right=0;fontStyle=1;overflow=hidden;" vertex="1" parent="194">
                    <mxGeometry width="30" height="30" as="geometry">
                        <mxRectangle width="30" height="30" as="alternateBounds"/>
                    </mxGeometry>
                </mxCell>
                <mxCell id="196" value="book_id" style="shape=partialRectangle;connectable=0;fillColor=none;top=0;left=0;bottom=0;right=0;align=left;spacingLeft=6;fontStyle=0;overflow=hidden;" vertex="1" parent="194">
                    <mxGeometry x="30" width="150" height="30" as="geometry">
                        <mxRectangle width="150" height="30" as="alternateBounds"/>
                    </mxGeometry>
                </mxCell>
                <mxCell id="197" value="int" style="shape=partialRectangle;connectable=0;fillColor=none;top=0;left=0;bottom=0;right=0;align=left;spacingLeft=6;fontStyle=0;overflow=hidden;" vertex="1" parent="194">
                    <mxGeometry x="180" width="110" height="30" as="geometry">
                        <mxRectangle width="110" height="30" as="alternateBounds"/>
                    </mxGeometry>
                </mxCell>
                <mxCell id="198" value="" style="shape=tableRow;horizontal=0;startSize=0;swimlaneHead=0;swimlaneBody=0;fillColor=none;collapsible=0;dropTarget=0;points=[[0,0.5],[1,0.5]];portConstraint=eastwest;top=0;left=0;right=0;bottom=0;" vertex="1" parent="193">
                    <mxGeometry y="60" width="290" height="30" as="geometry"/>
                </mxCell>
                <mxCell id="199" value="" style="shape=partialRectangle;connectable=0;fillColor=none;top=0;left=0;bottom=0;right=0;editable=1;overflow=hidden;" vertex="1" parent="198">
                    <mxGeometry width="30" height="30" as="geometry">
                        <mxRectangle width="30" height="30" as="alternateBounds"/>
                    </mxGeometry>
                </mxCell>
                <mxCell id="200" value="book_title" style="shape=partialRectangle;connectable=0;fillColor=none;top=0;left=0;bottom=0;right=0;align=left;spacingLeft=6;overflow=hidden;" vertex="1" parent="198">
                    <mxGeometry x="30" width="150" height="30" as="geometry">
                        <mxRectangle width="150" height="30" as="alternateBounds"/>
                    </mxGeometry>
                </mxCell>
                <mxCell id="201" value="varchar(255)" style="shape=partialRectangle;connectable=0;fillColor=none;top=0;left=0;bottom=0;right=0;align=left;spacingLeft=6;overflow=hidden;" vertex="1" parent="198">
                    <mxGeometry x="180" width="110" height="30" as="geometry">
                        <mxRectangle width="110" height="30" as="alternateBounds"/>
                    </mxGeometry>
                </mxCell>
                <mxCell id="202" value="" style="shape=tableRow;horizontal=0;startSize=0;swimlaneHead=0;swimlaneBody=0;fillColor=none;collapsible=0;dropTarget=0;points=[[0,0.5],[1,0.5]];portConstraint=eastwest;top=0;left=0;right=0;bottom=0;" vertex="1" parent="193">
                    <mxGeometry y="90" width="290" height="30" as="geometry"/>
                </mxCell>
                <mxCell id="203" value="" style="shape=partialRectangle;connectable=0;fillColor=none;top=0;left=0;bottom=0;right=0;editable=1;overflow=hidden;" vertex="1" parent="202">
                    <mxGeometry width="30" height="30" as="geometry">
                        <mxRectangle width="30" height="30" as="alternateBounds"/>
                    </mxGeometry>
                </mxCell>
                <mxCell id="204" value="book_author" style="shape=partialRectangle;connectable=0;fillColor=none;top=0;left=0;bottom=0;right=0;align=left;spacingLeft=6;overflow=hidden;" vertex="1" parent="202">
                    <mxGeometry x="30" width="150" height="30" as="geometry">
                        <mxRectangle width="150" height="30" as="alternateBounds"/>
                    </mxGeometry>
                </mxCell>
                <mxCell id="205" value="varchar(255)" style="shape=partialRectangle;connectable=0;fillColor=none;top=0;left=0;bottom=0;right=0;align=left;spacingLeft=6;overflow=hidden;" vertex="1" parent="202">
                    <mxGeometry x="180" width="110" height="30" as="geometry">
                        <mxRectangle width="110" height="30" as="alternateBounds"/>
                    </mxGeometry>
                </mxCell>
                <mxCell id="206" value="" style="shape=tableRow;horizontal=0;startSize=0;swimlaneHead=0;swimlaneBody=0;fillColor=none;collapsible=0;dropTarget=0;points=[[0,0.5],[1,0.5]];portConstraint=eastwest;top=0;left=0;right=0;bottom=0;" vertex="1" parent="193">
                    <mxGeometry y="120" width="290" height="30" as="geometry"/>
                </mxCell>
                <mxCell id="207" value="" style="shape=partialRectangle;connectable=0;fillColor=none;top=0;left=0;bottom=0;right=0;editable=1;overflow=hidden;" vertex="1" parent="206">
                    <mxGeometry width="30" height="30" as="geometry">
                        <mxRectangle width="30" height="30" as="alternateBounds"/>
                    </mxGeometry>
                </mxCell>
                <mxCell id="208" value="book_price" style="shape=partialRectangle;connectable=0;fillColor=none;top=0;left=0;bottom=0;right=0;align=left;spacingLeft=6;overflow=hidden;" vertex="1" parent="206">
                    <mxGeometry x="30" width="150" height="30" as="geometry">
                        <mxRectangle width="150" height="30" as="alternateBounds"/>
                    </mxGeometry>
                </mxCell>
                <mxCell id="209" value="decimal(10, 2)" style="shape=partialRectangle;connectable=0;fillColor=none;top=0;left=0;bottom=0;right=0;align=left;spacingLeft=6;overflow=hidden;" vertex="1" parent="206">
                    <mxGeometry x="180" width="110" height="30" as="geometry">
                        <mxRectangle width="110" height="30" as="alternateBounds"/>
                    </mxGeometry>
                </mxCell>
                <mxCell id="210" style="shape=tableRow;horizontal=0;startSize=0;swimlaneHead=0;swimlaneBody=0;fillColor=none;collapsible=0;dropTarget=0;points=[[0,0.5],[1,0.5]];portConstraint=eastwest;top=0;left=0;right=0;bottom=0;" vertex="1" parent="193">
                    <mxGeometry y="150" width="290" height="30" as="geometry"/>
                </mxCell>
                <mxCell id="211" style="shape=partialRectangle;connectable=0;fillColor=none;top=0;left=0;bottom=0;right=0;editable=1;overflow=hidden;" vertex="1" parent="210">
                    <mxGeometry width="30" height="30" as="geometry">
                        <mxRectangle width="30" height="30" as="alternateBounds"/>
                    </mxGeometry>
                </mxCell>
                <mxCell id="212" value="book_isbn" style="shape=partialRectangle;connectable=0;fillColor=none;top=0;left=0;bottom=0;right=0;align=left;spacingLeft=6;overflow=hidden;" vertex="1" parent="210">
                    <mxGeometry x="30" width="150" height="30" as="geometry">
                        <mxRectangle width="150" height="30" as="alternateBounds"/>
                    </mxGeometry>
                </mxCell>
                <mxCell id="213" value="varchar(13)" style="shape=partialRectangle;connectable=0;fillColor=none;top=0;left=0;bottom=0;right=0;align=left;spacingLeft=6;overflow=hidden;" vertex="1" parent="210">
                    <mxGeometry x="180" width="110" height="30" as="geometry">
                        <mxRectangle width="110" height="30" as="alternateBounds"/>
                    </mxGeometry>
                </mxCell>
                <mxCell id="214" style="shape=tableRow;horizontal=0;startSize=0;swimlaneHead=0;swimlaneBody=0;fillColor=none;collapsible=0;dropTarget=0;points=[[0,0.5],[1,0.5]];portConstraint=eastwest;top=0;left=0;right=0;bottom=0;" vertex="1" parent="193">
                    <mxGeometry y="180" width="290" height="30" as="geometry"/>
                </mxCell>
                <mxCell id="215" style="shape=partialRectangle;connectable=0;fillColor=none;top=0;left=0;bottom=0;right=0;editable=1;overflow=hidden;" vertex="1" parent="214">
                    <mxGeometry width="30" height="30" as="geometry">
                        <mxRectangle width="30" height="30" as="alternateBounds"/>
                    </mxGeometry>
                </mxCell>
                <mxCell id="216" value="book_publisher" style="shape=partialRectangle;connectable=0;fillColor=none;top=0;left=0;bottom=0;right=0;align=left;spacingLeft=6;overflow=hidden;" vertex="1" parent="214">
                    <mxGeometry x="30" width="150" height="30" as="geometry">
                        <mxRectangle width="150" height="30" as="alternateBounds"/>
                    </mxGeometry>
                </mxCell>
                <mxCell id="217" value="varchar(255)" style="shape=partialRectangle;connectable=0;fillColor=none;top=0;left=0;bottom=0;right=0;align=left;spacingLeft=6;overflow=hidden;" vertex="1" parent="214">
                    <mxGeometry x="180" width="110" height="30" as="geometry">
                        <mxRectangle width="110" height="30" as="alternateBounds"/>
                    </mxGeometry>
                </mxCell>
                <mxCell id="223" value="order" style="shape=table;startSize=30;container=1;collapsible=1;childLayout=tableLayout;fixedRows=1;rowLines=0;fontStyle=1;align=center;resizeLast=1;fontSize=16;" vertex="1" parent="4">
                    <mxGeometry x="-760" y="79" width="290" height="210" as="geometry"/>
                </mxCell>
                <mxCell id="224" value="" style="shape=tableRow;horizontal=0;startSize=0;swimlaneHead=0;swimlaneBody=0;fillColor=none;collapsible=0;dropTarget=0;points=[[0,0.5],[1,0.5]];portConstraint=eastwest;top=0;left=0;right=0;bottom=1;" vertex="1" parent="223">
                    <mxGeometry y="30" width="290" height="30" as="geometry"/>
                </mxCell>
                <mxCell id="225" value="PK" style="shape=partialRectangle;connectable=0;fillColor=none;top=0;left=0;bottom=0;right=0;fontStyle=1;overflow=hidden;" vertex="1" parent="224">
                    <mxGeometry width="30" height="30" as="geometry">
                        <mxRectangle width="30" height="30" as="alternateBounds"/>
                    </mxGeometry>
                </mxCell>
                <mxCell id="226" value="order_id" style="shape=partialRectangle;connectable=0;fillColor=none;top=0;left=0;bottom=0;right=0;align=left;spacingLeft=6;fontStyle=0;overflow=hidden;" vertex="1" parent="224">
                    <mxGeometry x="30" width="150" height="30" as="geometry">
                        <mxRectangle width="150" height="30" as="alternateBounds"/>
                    </mxGeometry>
                </mxCell>
                <mxCell id="227" value="int" style="shape=partialRectangle;connectable=0;fillColor=none;top=0;left=0;bottom=0;right=0;align=left;spacingLeft=6;fontStyle=0;overflow=hidden;" vertex="1" parent="224">
                    <mxGeometry x="180" width="110" height="30" as="geometry">
                        <mxRectangle width="110" height="30" as="alternateBounds"/>
                    </mxGeometry>
                </mxCell>
                <mxCell id="228" value="" style="shape=tableRow;horizontal=0;startSize=0;swimlaneHead=0;swimlaneBody=0;fillColor=none;collapsible=0;dropTarget=0;points=[[0,0.5],[1,0.5]];portConstraint=eastwest;top=0;left=0;right=0;bottom=0;" vertex="1" parent="223">
                    <mxGeometry y="60" width="290" height="30" as="geometry"/>
                </mxCell>
                <mxCell id="229" value="FK1" style="shape=partialRectangle;connectable=0;fillColor=none;top=0;left=0;bottom=0;right=0;editable=1;overflow=hidden;fontStyle=1" vertex="1" parent="228">
                    <mxGeometry width="30" height="30" as="geometry">
                        <mxRectangle width="30" height="30" as="alternateBounds"/>
                    </mxGeometry>
                </mxCell>
                <mxCell id="230" value="customer_id" style="shape=partialRectangle;connectable=0;fillColor=none;top=0;left=0;bottom=0;right=0;align=left;spacingLeft=6;overflow=hidden;" vertex="1" parent="228">
                    <mxGeometry x="30" width="150" height="30" as="geometry">
                        <mxRectangle width="150" height="30" as="alternateBounds"/>
                    </mxGeometry>
                </mxCell>
                <mxCell id="231" value="int" style="shape=partialRectangle;connectable=0;fillColor=none;top=0;left=0;bottom=0;right=0;align=left;spacingLeft=6;overflow=hidden;" vertex="1" parent="228">
                    <mxGeometry x="180" width="110" height="30" as="geometry">
                        <mxRectangle width="110" height="30" as="alternateBounds"/>
                    </mxGeometry>
                </mxCell>
                <mxCell id="232" value="" style="shape=tableRow;horizontal=0;startSize=0;swimlaneHead=0;swimlaneBody=0;fillColor=none;collapsible=0;dropTarget=0;points=[[0,0.5],[1,0.5]];portConstraint=eastwest;top=0;left=0;right=0;bottom=0;" vertex="1" parent="223">
                    <mxGeometry y="90" width="290" height="30" as="geometry"/>
                </mxCell>
                <mxCell id="233" value="FK2" style="shape=partialRectangle;connectable=0;fillColor=none;top=0;left=0;bottom=0;right=0;editable=1;overflow=hidden;fontStyle=1" vertex="1" parent="232">
                    <mxGeometry width="30" height="30" as="geometry">
                        <mxRectangle width="30" height="30" as="alternateBounds"/>
                    </mxGeometry>
                </mxCell>
                <mxCell id="234" value="order_date_id" style="shape=partialRectangle;connectable=0;fillColor=none;top=0;left=0;bottom=0;right=0;align=left;spacingLeft=6;overflow=hidden;" vertex="1" parent="232">
                    <mxGeometry x="30" width="150" height="30" as="geometry">
                        <mxRectangle width="150" height="30" as="alternateBounds"/>
                    </mxGeometry>
                </mxCell>
                <mxCell id="235" value="int" style="shape=partialRectangle;connectable=0;fillColor=none;top=0;left=0;bottom=0;right=0;align=left;spacingLeft=6;overflow=hidden;" vertex="1" parent="232">
                    <mxGeometry x="180" width="110" height="30" as="geometry">
                        <mxRectangle width="110" height="30" as="alternateBounds"/>
                    </mxGeometry>
                </mxCell>
                <mxCell id="236" value="" style="shape=tableRow;horizontal=0;startSize=0;swimlaneHead=0;swimlaneBody=0;fillColor=none;collapsible=0;dropTarget=0;points=[[0,0.5],[1,0.5]];portConstraint=eastwest;top=0;left=0;right=0;bottom=0;" vertex="1" parent="223">
                    <mxGeometry y="120" width="290" height="30" as="geometry"/>
                </mxCell>
                <mxCell id="237" value="" style="shape=partialRectangle;connectable=0;fillColor=none;top=0;left=0;bottom=0;right=0;editable=1;overflow=hidden;" vertex="1" parent="236">
                    <mxGeometry width="30" height="30" as="geometry">
                        <mxRectangle width="30" height="30" as="alternateBounds"/>
                    </mxGeometry>
                </mxCell>
                <mxCell id="238" value="order_status" style="shape=partialRectangle;connectable=0;fillColor=none;top=0;left=0;bottom=0;right=0;align=left;spacingLeft=6;overflow=hidden;" vertex="1" parent="236">
                    <mxGeometry x="30" width="150" height="30" as="geometry">
                        <mxRectangle width="150" height="30" as="alternateBounds"/>
                    </mxGeometry>
                </mxCell>
                <mxCell id="239" value="varchar(50)" style="shape=partialRectangle;connectable=0;fillColor=none;top=0;left=0;bottom=0;right=0;align=left;spacingLeft=6;overflow=hidden;" vertex="1" parent="236">
                    <mxGeometry x="180" width="110" height="30" as="geometry">
                        <mxRectangle width="110" height="30" as="alternateBounds"/>
                    </mxGeometry>
                </mxCell>
                <mxCell id="240" style="shape=tableRow;horizontal=0;startSize=0;swimlaneHead=0;swimlaneBody=0;fillColor=none;collapsible=0;dropTarget=0;points=[[0,0.5],[1,0.5]];portConstraint=eastwest;top=0;left=0;right=0;bottom=0;" vertex="1" parent="223">
                    <mxGeometry y="150" width="290" height="30" as="geometry"/>
                </mxCell>
                <mxCell id="241" style="shape=partialRectangle;connectable=0;fillColor=none;top=0;left=0;bottom=0;right=0;editable=1;overflow=hidden;" vertex="1" parent="240">
                    <mxGeometry width="30" height="30" as="geometry">
                        <mxRectangle width="30" height="30" as="alternateBounds"/>
                    </mxGeometry>
                </mxCell>
                <mxCell id="242" value="order_total_amount" style="shape=partialRectangle;connectable=0;fillColor=none;top=0;left=0;bottom=0;right=0;align=left;spacingLeft=6;overflow=hidden;" vertex="1" parent="240">
                    <mxGeometry x="30" width="150" height="30" as="geometry">
                        <mxRectangle width="150" height="30" as="alternateBounds"/>
                    </mxGeometry>
                </mxCell>
                <mxCell id="243" value="decimal(10, 2)" style="shape=partialRectangle;connectable=0;fillColor=none;top=0;left=0;bottom=0;right=0;align=left;spacingLeft=6;overflow=hidden;" vertex="1" parent="240">
                    <mxGeometry x="180" width="110" height="30" as="geometry">
                        <mxRectangle width="110" height="30" as="alternateBounds"/>
                    </mxGeometry>
                </mxCell>
                <mxCell id="244" style="shape=tableRow;horizontal=0;startSize=0;swimlaneHead=0;swimlaneBody=0;fillColor=none;collapsible=0;dropTarget=0;points=[[0,0.5],[1,0.5]];portConstraint=eastwest;top=0;left=0;right=0;bottom=0;" vertex="1" parent="223">
                    <mxGeometry y="180" width="290" height="30" as="geometry"/>
                </mxCell>
                <mxCell id="245" style="shape=partialRectangle;connectable=0;fillColor=none;top=0;left=0;bottom=0;right=0;editable=1;overflow=hidden;" vertex="1" parent="244">
                    <mxGeometry width="30" height="30" as="geometry">
                        <mxRectangle width="30" height="30" as="alternateBounds"/>
                    </mxGeometry>
                </mxCell>
                <mxCell id="246" value="order_payment_method    " style="shape=partialRectangle;connectable=0;fillColor=none;top=0;left=0;bottom=0;right=0;align=left;spacingLeft=6;overflow=hidden;" vertex="1" parent="244">
                    <mxGeometry x="30" width="150" height="30" as="geometry">
                        <mxRectangle width="150" height="30" as="alternateBounds"/>
                    </mxGeometry>
                </mxCell>
                <mxCell id="247" value="varchar(50)" style="shape=partialRectangle;connectable=0;fillColor=none;top=0;left=0;bottom=0;right=0;align=left;spacingLeft=6;overflow=hidden;" vertex="1" parent="244">
                    <mxGeometry x="180" width="110" height="30" as="geometry">
                        <mxRectangle width="110" height="30" as="alternateBounds"/>
                    </mxGeometry>
                </mxCell>
                <mxCell id="253" value="sales" style="shape=table;startSize=30;container=1;collapsible=1;childLayout=tableLayout;fixedRows=1;rowLines=0;fontStyle=1;align=center;resizeLast=1;fontSize=16;" vertex="1" parent="4">
                    <mxGeometry x="-770" y="360" width="290" height="180" as="geometry"/>
                </mxCell>
                <mxCell id="254" value="" style="shape=tableRow;horizontal=0;startSize=0;swimlaneHead=0;swimlaneBody=0;fillColor=none;collapsible=0;dropTarget=0;points=[[0,0.5],[1,0.5]];portConstraint=eastwest;top=0;left=0;right=0;bottom=1;" vertex="1" parent="253">
                    <mxGeometry y="30" width="290" height="30" as="geometry"/>
                </mxCell>
                <mxCell id="255" value="PK" style="shape=partialRectangle;connectable=0;fillColor=none;top=0;left=0;bottom=0;right=0;fontStyle=1;overflow=hidden;" vertex="1" parent="254">
                    <mxGeometry width="30" height="30" as="geometry">
                        <mxRectangle width="30" height="30" as="alternateBounds"/>
                    </mxGeometry>
                </mxCell>
                <mxCell id="256" value="sales_id" style="shape=partialRectangle;connectable=0;fillColor=none;top=0;left=0;bottom=0;right=0;align=left;spacingLeft=6;fontStyle=0;overflow=hidden;" vertex="1" parent="254">
                    <mxGeometry x="30" width="150" height="30" as="geometry">
                        <mxRectangle width="150" height="30" as="alternateBounds"/>
                    </mxGeometry>
                </mxCell>
                <mxCell id="257" value="int" style="shape=partialRectangle;connectable=0;fillColor=none;top=0;left=0;bottom=0;right=0;align=left;spacingLeft=6;fontStyle=0;overflow=hidden;" vertex="1" parent="254">
                    <mxGeometry x="180" width="110" height="30" as="geometry">
                        <mxRectangle width="110" height="30" as="alternateBounds"/>
                    </mxGeometry>
                </mxCell>
                <mxCell id="258" value="" style="shape=tableRow;horizontal=0;startSize=0;swimlaneHead=0;swimlaneBody=0;fillColor=none;collapsible=0;dropTarget=0;points=[[0,0.5],[1,0.5]];portConstraint=eastwest;top=0;left=0;right=0;bottom=0;" vertex="1" parent="253">
                    <mxGeometry y="60" width="290" height="30" as="geometry"/>
                </mxCell>
                <mxCell id="259" value="FK1" style="shape=partialRectangle;connectable=0;fillColor=none;top=0;left=0;bottom=0;right=0;editable=1;overflow=hidden;fontStyle=1" vertex="1" parent="258">
                    <mxGeometry width="30" height="30" as="geometry">
                        <mxRectangle width="30" height="30" as="alternateBounds"/>
                    </mxGeometry>
                </mxCell>
                <mxCell id="260" value="order_id" style="shape=partialRectangle;connectable=0;fillColor=none;top=0;left=0;bottom=0;right=0;align=left;spacingLeft=6;overflow=hidden;" vertex="1" parent="258">
                    <mxGeometry x="30" width="150" height="30" as="geometry">
                        <mxRectangle width="150" height="30" as="alternateBounds"/>
                    </mxGeometry>
                </mxCell>
                <mxCell id="261" value="int" style="shape=partialRectangle;connectable=0;fillColor=none;top=0;left=0;bottom=0;right=0;align=left;spacingLeft=6;overflow=hidden;" vertex="1" parent="258">
                    <mxGeometry x="180" width="110" height="30" as="geometry">
                        <mxRectangle width="110" height="30" as="alternateBounds"/>
                    </mxGeometry>
                </mxCell>
                <mxCell id="262" value="" style="shape=tableRow;horizontal=0;startSize=0;swimlaneHead=0;swimlaneBody=0;fillColor=none;collapsible=0;dropTarget=0;points=[[0,0.5],[1,0.5]];portConstraint=eastwest;top=0;left=0;right=0;bottom=0;" vertex="1" parent="253">
                    <mxGeometry y="90" width="290" height="30" as="geometry"/>
                </mxCell>
                <mxCell id="263" value="FK2" style="shape=partialRectangle;connectable=0;fillColor=none;top=0;left=0;bottom=0;right=0;editable=1;overflow=hidden;fontStyle=1" vertex="1" parent="262">
                    <mxGeometry width="30" height="30" as="geometry">
                        <mxRectangle width="30" height="30" as="alternateBounds"/>
                    </mxGeometry>
                </mxCell>
                <mxCell id="264" value="book_id" style="shape=partialRectangle;connectable=0;fillColor=none;top=0;left=0;bottom=0;right=0;align=left;spacingLeft=6;overflow=hidden;" vertex="1" parent="262">
                    <mxGeometry x="30" width="150" height="30" as="geometry">
                        <mxRectangle width="150" height="30" as="alternateBounds"/>
                    </mxGeometry>
                </mxCell>
                <mxCell id="265" value="int" style="shape=partialRectangle;connectable=0;fillColor=none;top=0;left=0;bottom=0;right=0;align=left;spacingLeft=6;overflow=hidden;" vertex="1" parent="262">
                    <mxGeometry x="180" width="110" height="30" as="geometry">
                        <mxRectangle width="110" height="30" as="alternateBounds"/>
                    </mxGeometry>
                </mxCell>
                <mxCell id="266" value="" style="shape=tableRow;horizontal=0;startSize=0;swimlaneHead=0;swimlaneBody=0;fillColor=none;collapsible=0;dropTarget=0;points=[[0,0.5],[1,0.5]];portConstraint=eastwest;top=0;left=0;right=0;bottom=0;" vertex="1" parent="253">
                    <mxGeometry y="120" width="290" height="30" as="geometry"/>
                </mxCell>
                <mxCell id="267" value="" style="shape=partialRectangle;connectable=0;fillColor=none;top=0;left=0;bottom=0;right=0;editable=1;overflow=hidden;" vertex="1" parent="266">
                    <mxGeometry width="30" height="30" as="geometry">
                        <mxRectangle width="30" height="30" as="alternateBounds"/>
                    </mxGeometry>
                </mxCell>
                <mxCell id="268" value="sales_quantity " style="shape=partialRectangle;connectable=0;fillColor=none;top=0;left=0;bottom=0;right=0;align=left;spacingLeft=6;overflow=hidden;" vertex="1" parent="266">
                    <mxGeometry x="30" width="150" height="30" as="geometry">
                        <mxRectangle width="150" height="30" as="alternateBounds"/>
                    </mxGeometry>
                </mxCell>
                <mxCell id="269" value="int" style="shape=partialRectangle;connectable=0;fillColor=none;top=0;left=0;bottom=0;right=0;align=left;spacingLeft=6;overflow=hidden;" vertex="1" parent="266">
                    <mxGeometry x="180" width="110" height="30" as="geometry">
                        <mxRectangle width="110" height="30" as="alternateBounds"/>
                    </mxGeometry>
                </mxCell>
                <mxCell id="270" style="shape=tableRow;horizontal=0;startSize=0;swimlaneHead=0;swimlaneBody=0;fillColor=none;collapsible=0;dropTarget=0;points=[[0,0.5],[1,0.5]];portConstraint=eastwest;top=0;left=0;right=0;bottom=0;" vertex="1" parent="253">
                    <mxGeometry y="150" width="290" height="30" as="geometry"/>
                </mxCell>
                <mxCell id="271" style="shape=partialRectangle;connectable=0;fillColor=none;top=0;left=0;bottom=0;right=0;editable=1;overflow=hidden;" vertex="1" parent="270">
                    <mxGeometry width="30" height="30" as="geometry">
                        <mxRectangle width="30" height="30" as="alternateBounds"/>
                    </mxGeometry>
                </mxCell>
                <mxCell id="272" value="unit_sales_price" style="shape=partialRectangle;connectable=0;fillColor=none;top=0;left=0;bottom=0;right=0;align=left;spacingLeft=6;overflow=hidden;" vertex="1" parent="270">
                    <mxGeometry x="30" width="150" height="30" as="geometry">
                        <mxRectangle width="150" height="30" as="alternateBounds"/>
                    </mxGeometry>
                </mxCell>
                <mxCell id="273" value="decimal(10, 2)" style="shape=partialRectangle;connectable=0;fillColor=none;top=0;left=0;bottom=0;right=0;align=left;spacingLeft=6;overflow=hidden;" vertex="1" parent="270">
                    <mxGeometry x="180" width="110" height="30" as="geometry">
                        <mxRectangle width="110" height="30" as="alternateBounds"/>
                    </mxGeometry>
                </mxCell>
                <mxCell id="279" value="date" style="shape=table;startSize=30;container=1;collapsible=1;childLayout=tableLayout;fixedRows=1;rowLines=0;fontStyle=1;align=center;resizeLast=1;fontSize=16;" vertex="1" parent="4">
                    <mxGeometry x="-1560" y="600" width="290" height="180" as="geometry"/>
                </mxCell>
                <mxCell id="280" value="" style="shape=tableRow;horizontal=0;startSize=0;swimlaneHead=0;swimlaneBody=0;fillColor=none;collapsible=0;dropTarget=0;points=[[0,0.5],[1,0.5]];portConstraint=eastwest;top=0;left=0;right=0;bottom=1;" vertex="1" parent="279">
                    <mxGeometry y="30" width="290" height="30" as="geometry"/>
                </mxCell>
                <mxCell id="281" value="PK" style="shape=partialRectangle;connectable=0;fillColor=none;top=0;left=0;bottom=0;right=0;fontStyle=1;overflow=hidden;" vertex="1" parent="280">
                    <mxGeometry width="30" height="30" as="geometry">
                        <mxRectangle width="30" height="30" as="alternateBounds"/>
                    </mxGeometry>
                </mxCell>
                <mxCell id="282" value="date_id" style="shape=partialRectangle;connectable=0;fillColor=none;top=0;left=0;bottom=0;right=0;align=left;spacingLeft=6;fontStyle=0;overflow=hidden;" vertex="1" parent="280">
                    <mxGeometry x="30" width="150" height="30" as="geometry">
                        <mxRectangle width="150" height="30" as="alternateBounds"/>
                    </mxGeometry>
                </mxCell>
                <mxCell id="283" value="int" style="shape=partialRectangle;connectable=0;fillColor=none;top=0;left=0;bottom=0;right=0;align=left;spacingLeft=6;fontStyle=0;overflow=hidden;" vertex="1" parent="280">
                    <mxGeometry x="180" width="110" height="30" as="geometry">
                        <mxRectangle width="110" height="30" as="alternateBounds"/>
                    </mxGeometry>
                </mxCell>
                <mxCell id="284" value="" style="shape=tableRow;horizontal=0;startSize=0;swimlaneHead=0;swimlaneBody=0;fillColor=none;collapsible=0;dropTarget=0;points=[[0,0.5],[1,0.5]];portConstraint=eastwest;top=0;left=0;right=0;bottom=0;" vertex="1" parent="279">
                    <mxGeometry y="60" width="290" height="30" as="geometry"/>
                </mxCell>
                <mxCell id="285" value="" style="shape=partialRectangle;connectable=0;fillColor=none;top=0;left=0;bottom=0;right=0;editable=1;overflow=hidden;" vertex="1" parent="284">
                    <mxGeometry width="30" height="30" as="geometry">
                        <mxRectangle width="30" height="30" as="alternateBounds"/>
                    </mxGeometry>
                </mxCell>
                <mxCell id="286" value="datetime" style="shape=partialRectangle;connectable=0;fillColor=none;top=0;left=0;bottom=0;right=0;align=left;spacingLeft=6;overflow=hidden;" vertex="1" parent="284">
                    <mxGeometry x="30" width="150" height="30" as="geometry">
                        <mxRectangle width="150" height="30" as="alternateBounds"/>
                    </mxGeometry>
                </mxCell>
                <mxCell id="287" value="datetime" style="shape=partialRectangle;connectable=0;fillColor=none;top=0;left=0;bottom=0;right=0;align=left;spacingLeft=6;overflow=hidden;" vertex="1" parent="284">
                    <mxGeometry x="180" width="110" height="30" as="geometry">
                        <mxRectangle width="110" height="30" as="alternateBounds"/>
                    </mxGeometry>
                </mxCell>
                <mxCell id="288" value="" style="shape=tableRow;horizontal=0;startSize=0;swimlaneHead=0;swimlaneBody=0;fillColor=none;collapsible=0;dropTarget=0;points=[[0,0.5],[1,0.5]];portConstraint=eastwest;top=0;left=0;right=0;bottom=0;" vertex="1" parent="279">
                    <mxGeometry y="90" width="290" height="30" as="geometry"/>
                </mxCell>
                <mxCell id="289" value="" style="shape=partialRectangle;connectable=0;fillColor=none;top=0;left=0;bottom=0;right=0;editable=1;overflow=hidden;" vertex="1" parent="288">
                    <mxGeometry width="30" height="30" as="geometry">
                        <mxRectangle width="30" height="30" as="alternateBounds"/>
                    </mxGeometry>
                </mxCell>
                <mxCell id="290" value="day" style="shape=partialRectangle;connectable=0;fillColor=none;top=0;left=0;bottom=0;right=0;align=left;spacingLeft=6;overflow=hidden;" vertex="1" parent="288">
                    <mxGeometry x="30" width="150" height="30" as="geometry">
                        <mxRectangle width="150" height="30" as="alternateBounds"/>
                    </mxGeometry>
                </mxCell>
                <mxCell id="291" value="int" style="shape=partialRectangle;connectable=0;fillColor=none;top=0;left=0;bottom=0;right=0;align=left;spacingLeft=6;overflow=hidden;" vertex="1" parent="288">
                    <mxGeometry x="180" width="110" height="30" as="geometry">
                        <mxRectangle width="110" height="30" as="alternateBounds"/>
                    </mxGeometry>
                </mxCell>
                <mxCell id="292" value="" style="shape=tableRow;horizontal=0;startSize=0;swimlaneHead=0;swimlaneBody=0;fillColor=none;collapsible=0;dropTarget=0;points=[[0,0.5],[1,0.5]];portConstraint=eastwest;top=0;left=0;right=0;bottom=0;" vertex="1" parent="279">
                    <mxGeometry y="120" width="290" height="30" as="geometry"/>
                </mxCell>
                <mxCell id="293" value="" style="shape=partialRectangle;connectable=0;fillColor=none;top=0;left=0;bottom=0;right=0;editable=1;overflow=hidden;" vertex="1" parent="292">
                    <mxGeometry width="30" height="30" as="geometry">
                        <mxRectangle width="30" height="30" as="alternateBounds"/>
                    </mxGeometry>
                </mxCell>
                <mxCell id="294" value="month" style="shape=partialRectangle;connectable=0;fillColor=none;top=0;left=0;bottom=0;right=0;align=left;spacingLeft=6;overflow=hidden;" vertex="1" parent="292">
                    <mxGeometry x="30" width="150" height="30" as="geometry">
                        <mxRectangle width="150" height="30" as="alternateBounds"/>
                    </mxGeometry>
                </mxCell>
                <mxCell id="295" value="int" style="shape=partialRectangle;connectable=0;fillColor=none;top=0;left=0;bottom=0;right=0;align=left;spacingLeft=6;overflow=hidden;" vertex="1" parent="292">
                    <mxGeometry x="180" width="110" height="30" as="geometry">
                        <mxRectangle width="110" height="30" as="alternateBounds"/>
                    </mxGeometry>
                </mxCell>
                <mxCell id="296" style="shape=tableRow;horizontal=0;startSize=0;swimlaneHead=0;swimlaneBody=0;fillColor=none;collapsible=0;dropTarget=0;points=[[0,0.5],[1,0.5]];portConstraint=eastwest;top=0;left=0;right=0;bottom=0;" vertex="1" parent="279">
                    <mxGeometry y="150" width="290" height="30" as="geometry"/>
                </mxCell>
                <mxCell id="297" style="shape=partialRectangle;connectable=0;fillColor=none;top=0;left=0;bottom=0;right=0;editable=1;overflow=hidden;" vertex="1" parent="296">
                    <mxGeometry width="30" height="30" as="geometry">
                        <mxRectangle width="30" height="30" as="alternateBounds"/>
                    </mxGeometry>
                </mxCell>
                <mxCell id="298" value="year" style="shape=partialRectangle;connectable=0;fillColor=none;top=0;left=0;bottom=0;right=0;align=left;spacingLeft=6;overflow=hidden;" vertex="1" parent="296">
                    <mxGeometry x="30" width="150" height="30" as="geometry">
                        <mxRectangle width="150" height="30" as="alternateBounds"/>
                    </mxGeometry>
                </mxCell>
                <mxCell id="299" value="int" style="shape=partialRectangle;connectable=0;fillColor=none;top=0;left=0;bottom=0;right=0;align=left;spacingLeft=6;overflow=hidden;" vertex="1" parent="296">
                    <mxGeometry x="180" width="110" height="30" as="geometry">
                        <mxRectangle width="110" height="30" as="alternateBounds"/>
                    </mxGeometry>
                </mxCell>
                <mxCell id="316" value="&lt;font style=&quot;font-size: 12px;&quot;&gt;One&lt;/font&gt;" style="text;html=1;align=center;verticalAlign=middle;resizable=0;points=[];autosize=1;strokeColor=none;fillColor=none;fontSize=16;" vertex="1" parent="4">
                    <mxGeometry x="-1275" y="640" width="50" height="30" as="geometry"/>
                </mxCell>
                <mxCell id="317" value="&lt;font style=&quot;font-size: 12px;&quot;&gt;Many&lt;/font&gt;" style="text;html=1;align=center;verticalAlign=middle;resizable=0;points=[];autosize=1;strokeColor=none;fillColor=none;fontSize=16;" vertex="1" parent="4">
                    <mxGeometry x="-1640" y="260" width="50" height="30" as="geometry"/>
                </mxCell>
                <mxCell id="318" value="" style="edgeStyle=entityRelationEdgeStyle;fontSize=12;html=1;endArrow=ERoneToMany;exitX=1;exitY=0.5;exitDx=0;exitDy=0;" edge="1" parent="4" source="169">
                    <mxGeometry width="100" height="100" relative="1" as="geometry">
                        <mxPoint x="-1100" y="230" as="sourcePoint"/>
                        <mxPoint x="-770" y="150" as="targetPoint"/>
                    </mxGeometry>
                </mxCell>
                <mxCell id="319" value="&lt;font style=&quot;font-size: 12px;&quot;&gt;One&lt;/font&gt;" style="text;html=1;align=center;verticalAlign=middle;resizable=0;points=[];autosize=1;strokeColor=none;fillColor=none;fontSize=16;" vertex="1" parent="4">
                    <mxGeometry x="-880" y="100" width="50" height="30" as="geometry"/>
                </mxCell>
                <mxCell id="320" value="Many" style="text;html=1;align=center;verticalAlign=middle;resizable=0;points=[];autosize=1;strokeColor=none;fillColor=none;fontSize=12;" vertex="1" parent="4">
                    <mxGeometry x="-800" y="120" width="50" height="30" as="geometry"/>
                </mxCell>
                <mxCell id="321" value="" style="edgeStyle=entityRelationEdgeStyle;fontSize=12;html=1;endArrow=ERoneToMany;" edge="1" parent="4" target="258">
                    <mxGeometry width="100" height="100" relative="1" as="geometry">
                        <mxPoint x="-460" y="120" as="sourcePoint"/>
                        <mxPoint x="-610" y="420" as="targetPoint"/>
                    </mxGeometry>
                </mxCell>
                <mxCell id="331" value="One" style="text;html=1;align=center;verticalAlign=middle;resizable=0;points=[];autosize=1;strokeColor=none;fillColor=none;fontSize=12;" vertex="1" parent="4">
                    <mxGeometry x="-475" y="95" width="50" height="30" as="geometry"/>
                </mxCell>
                <mxCell id="332" value="Many" style="text;html=1;align=center;verticalAlign=middle;resizable=0;points=[];autosize=1;strokeColor=none;fillColor=none;fontSize=12;" vertex="1" parent="4">
                    <mxGeometry x="-480" y="410" width="50" height="30" as="geometry"/>
                </mxCell>
                <mxCell id="333" value="" style="edgeStyle=entityRelationEdgeStyle;fontSize=12;html=1;endArrow=ERoneToMany;entryX=0;entryY=0.5;entryDx=0;entryDy=0;exitX=1;exitY=0.5;exitDx=0;exitDy=0;" edge="1" parent="4" source="194" target="262">
                    <mxGeometry width="100" height="100" relative="1" as="geometry">
                        <mxPoint x="-880" y="410" as="sourcePoint"/>
                        <mxPoint x="-780" y="310" as="targetPoint"/>
                    </mxGeometry>
                </mxCell>
                <mxCell id="334" value="One" style="text;html=1;align=center;verticalAlign=middle;resizable=0;points=[];autosize=1;strokeColor=none;fillColor=none;fontSize=12;" vertex="1" parent="4">
                    <mxGeometry x="-880" y="380" width="50" height="30" as="geometry"/>
                </mxCell>
                <mxCell id="335" value="Many" style="text;html=1;align=center;verticalAlign=middle;resizable=0;points=[];autosize=1;strokeColor=none;fillColor=none;fontSize=12;" vertex="1" parent="4">
                    <mxGeometry x="-810" y="440" width="50" height="30" as="geometry"/>
                </mxCell>
                <mxCell id="336" value="" style="edgeStyle=entityRelationEdgeStyle;fontSize=12;html=1;endArrow=ERoneToMany;exitX=1;exitY=0.5;exitDx=0;exitDy=0;" edge="1" parent="4" source="280">
                    <mxGeometry width="100" height="100" relative="1" as="geometry">
                        <mxPoint x="-1640" y="640" as="sourcePoint"/>
                        <mxPoint x="-1570" y="280" as="targetPoint"/>
                    </mxGeometry>
                </mxCell>
                <mxCell id="337" value="" style="edgeStyle=orthogonalEdgeStyle;fontSize=12;html=1;endArrow=ERoneToMany;entryX=0;entryY=0.5;entryDx=0;entryDy=0;rounded=1;" edge="1" parent="4" target="232">
                    <mxGeometry width="100" height="100" relative="1" as="geometry">
                        <mxPoint x="-1270" y="640" as="sourcePoint"/>
                        <mxPoint x="-1170" y="540" as="targetPoint"/>
                        <Array as="points">
                            <mxPoint x="-1230" y="640"/>
                            <mxPoint x="-1230" y="310"/>
                            <mxPoint x="-820" y="310"/>
                            <mxPoint x="-820" y="184"/>
                        </Array>
                    </mxGeometry>
                </mxCell>
                <mxCell id="339" value="Many" style="text;html=1;align=center;verticalAlign=middle;resizable=0;points=[];autosize=1;strokeColor=none;fillColor=none;fontSize=12;" vertex="1" parent="4">
                    <mxGeometry x="-800" y="190" width="50" height="30" as="geometry"/>
                </mxCell>
            </root>
        </mxGraphModel>
    </diagram>
</mxfile>